<svg width="20" height="20" viewBox="0 0 20 20" fill="none" xmlns="http://www.w3.org/2000/svg">
<path d="M9.99999 18.3334C5.39749 18.3334 1.66666 14.6026 1.66666 10.0001C1.66666 5.39758 5.39749 1.66675 9.99999 1.66675C14.6025 1.66675 18.3333 5.39758 18.3333 10.0001C18.3333 14.6026 14.6025 18.3334 9.99999 18.3334ZM9.99999 12.5001C9.53975 12.5001 9.16666 12.8732 9.16666 13.3334C9.16666 13.7937 9.53975 14.1667 9.99999 14.1667C10.4602 14.1667 10.8333 13.7937 10.8333 13.3334C10.8333 12.8732 10.4602 12.5001 9.99999 12.5001ZM10.8333 11.1292C11.503 10.9274 12.078 10.4917 12.4535 9.90153C12.8289 9.31136 12.9799 8.60596 12.8789 7.9138C12.778 7.22165 12.4317 6.58878 11.9033 6.13046C11.3749 5.67214 10.6995 5.41886 9.99999 5.41675C9.3257 5.4167 8.67221 5.65021 8.15065 6.07758C7.75883 6.39863 7.45964 6.8142 7.27886 7.2814C7.1792 7.53895 7.35869 7.80489 7.62947 7.85913L8.28369 7.99017C8.55454 8.04442 8.81106 7.85862 8.96644 7.63025C9.0048 7.57388 9.04785 7.52051 9.0953 7.47076C9.25867 7.29944 9.46733 7.17803 9.69701 7.12067C9.92669 7.0633 10.1679 7.07234 10.3927 7.14672C10.6174 7.22111 10.8164 7.35778 10.9665 7.54084C11.1166 7.7239 11.2117 7.94582 11.2406 8.18078C11.2695 8.41574 11.2311 8.65408 11.1298 8.86807C11.0285 9.08205 10.8686 9.26288 10.6686 9.38952C10.4686 9.51616 10.2367 9.5834 9.99999 9.58342C9.77898 9.58342 9.56702 9.67121 9.41073 9.82749C9.25445 9.98377 9.16666 10.1957 9.16666 10.4167V10.9525C9.16666 11.347 9.48645 11.6667 9.88094 11.6667H10.2958C10.5927 11.6667 10.8333 11.4261 10.8333 11.1292Z" fill="#C9CED6"/>
</svg>
